<?xml version="1.0" encoding="UTF-8"?>
<svg id="logo" xmlns="http://www.w3.org/2000/svg" viewBox="0 0 32 32">
    <defs>
        <style>.cls-1{fill:#232323;}.cls-2{fill:url(#linear-gradient);}</style>
        <linearGradient id="linear-gradient" x1="16" y1="7" x2="16" y2="24.5" gradientUnits="userSpaceOnUse">
            <stop offset="0" stop-color="#fff"/>
            <stop offset="1" stop-color="#838383"/>
        </linearGradient>
    </defs>
    <rect class="cls-1" width="32" height="32" rx="5" ry="5"/>
    <path class="cls-2"
          d="M23.5,16c0-.66,0-1.33,0-1.99-1.83,.66-3.66,1.33-5.5,1.99,0-.67,0-1.33,0-2-1.83,.67-3.67,1.33-5.5,2-.16-3-.33-6-.49-9h-3c-.17,3-.34,6-.5,9.01-.33,.33-.66,.66-1,1,0,2.5,0,5,0,7.5,5.66,0,11.33,0,16.99,0,0-2.49,0-4.99,0-7.48-.34-.34-.67-.67-1.01-1.01Zm-3.5,6h-1.5v-3.5h1.5v3.5Zm3,0h-1.5v-3.5h1.5v3.5Z"/>
</svg>